<svg width="33" height="32" viewBox="0 0 33 32" fill="none" xmlns="http://www.w3.org/2000/svg">
<g clip-path="url(#clip0_53_592)">
<path fill-rule="evenodd" clip-rule="evenodd" d="M0.5 16C0.5 7.16347 7.66347 0 16.5 0C25.3365 0 32.5 7.16347 32.5 16C32.5 24.8365 25.3365 32 16.5 32C7.66347 32 0.5 24.8365 0.5 16ZM16.5008 7.46667C14.1833 7.46667 13.8924 7.4768 12.9822 7.5182C12.0737 7.5598 11.4537 7.70367 10.9111 7.91467C10.3498 8.1326 9.87373 8.4242 9.3994 8.89867C8.92473 9.373 8.63313 9.84907 8.41447 10.4101C8.20293 10.9529 8.05893 11.5732 8.01807 12.4813C7.97733 13.3915 7.96667 13.6825 7.96667 16.0001C7.96667 18.3176 7.977 18.6076 8.0182 19.5178C8.06 20.4263 8.2038 21.0463 8.41467 21.5889C8.6328 22.1502 8.92433 22.6263 9.39887 23.1006C9.873 23.5753 10.3491 23.8675 10.91 24.0855C11.4529 24.2965 12.0732 24.4403 12.9815 24.4819C13.8917 24.5234 14.1824 24.5335 16.4997 24.5335C18.8175 24.5335 19.1074 24.5234 20.0177 24.4819C20.9261 24.4403 21.5469 24.2965 22.0899 24.0855C22.6509 23.8675 23.1263 23.5753 23.6004 23.1006C24.0751 22.6263 24.3667 22.1502 24.5853 21.5891C24.7951 21.0463 24.9391 20.4261 24.9818 19.518C25.0227 18.6077 25.0333 18.3176 25.0333 16.0001C25.0333 13.6825 25.0227 13.3917 24.9818 12.4815C24.9391 11.573 24.7951 10.9529 24.5853 10.4103C24.3667 9.84907 24.0751 9.373 23.6004 8.89867C23.1257 8.424 22.6511 8.13247 22.0893 7.91467C21.5453 7.70367 20.9249 7.5598 20.0164 7.5182C19.1061 7.4768 18.8164 7.46667 16.4981 7.46667H16.5008Z" fill="#FAF4EA"/>
<path fill-rule="evenodd" clip-rule="evenodd" d="M15.7349 9.00506C15.9621 9.00473 16.2157 9.00506 16.5005 9.00506C18.7789 9.00506 19.0489 9.01326 19.9487 9.05413C20.7807 9.0922 21.2323 9.2312 21.5331 9.348C21.9313 9.50266 22.2152 9.68753 22.5137 9.9862C22.8123 10.2849 22.9973 10.5693 23.1523 10.9676C23.2691 11.268 23.4083 11.7196 23.4461 12.5516C23.487 13.4511 23.4959 13.7214 23.4959 15.9987C23.4959 18.2761 23.487 18.5463 23.4461 19.4459C23.4081 20.2779 23.2691 20.7295 23.1523 21.0299C22.9976 21.4281 22.8123 21.7117 22.5137 22.0102C22.215 22.3089 21.9315 22.4937 21.5331 22.6484C21.2326 22.7657 20.7807 22.9044 19.9487 22.9425C19.0491 22.9833 18.7789 22.9922 16.5005 22.9922C14.2219 22.9922 13.9518 22.9833 13.0523 22.9425C12.2203 22.9041 11.7687 22.765 11.4677 22.6482C11.0695 22.4935 10.785 22.3087 10.4863 22.01C10.1877 21.7113 10.0028 21.4276 9.84782 21.0292C9.73102 20.7287 9.59182 20.2772 9.55395 19.4452C9.51302 18.5456 9.50488 18.2754 9.50488 15.9966C9.50488 13.7178 9.51302 13.449 9.55395 12.5495C9.59195 11.7175 9.73102 11.2659 9.84782 10.9651C10.0025 10.5669 10.1877 10.2824 10.4863 9.98373C10.785 9.68506 11.0695 9.5002 11.4677 9.34513C11.7685 9.2278 12.2203 9.08913 13.0523 9.05093C13.8395 9.0154 14.1445 9.00473 15.7349 9.00293V9.00506ZM21.0555 10.4219C20.4902 10.4219 20.0315 10.8801 20.0315 11.4456C20.0315 12.0109 20.4902 12.4696 21.0555 12.4696C21.6209 12.4696 22.0795 12.0109 22.0795 11.4456C22.0795 10.8803 21.6209 10.4219 21.0555 10.4219ZM16.5005 11.6184C14.0803 11.6184 12.1182 13.5806 12.1182 16.0007C12.1182 18.4208 14.0803 20.3821 16.5005 20.3821C18.9206 20.3821 20.882 18.4208 20.882 16.0007C20.882 13.5806 18.9206 11.6184 16.5005 11.6184Z" fill="#FAF4EA"/>
<path fill-rule="evenodd" clip-rule="evenodd" d="M16.5007 13.1553C18.0716 13.1553 19.3452 14.4287 19.3452 15.9997C19.3452 17.5706 18.0716 18.8442 16.5007 18.8442C14.9296 18.8442 13.6562 17.5706 13.6562 15.9997C13.6562 14.4287 14.9296 13.1553 16.5007 13.1553Z" fill="#FAF4EA"/>
</g>
<defs>
<clipPath id="clip0_53_592">
<rect width="32" height="32" fill="white" transform="translate(0.5)"/>
</clipPath>
</defs>
</svg>
